<svg width="800" height="600" xmlns="http://www.w3.org/2000/svg">
  <rect stroke="#000" id="svg_4" height="600" width="800" y="0" x="0" opacity="NaN" stroke-width="0" fill="#FFB27C"/>
  <rect fill="#fff" stroke="#000" x="163.6" y="214.4" width="0" height="1" id="svg_2"/>
  <rect fill="#fff" stroke="#000" x="199.6" y="204.4" width="0" height="1" id="svg_3"/>
  <text font-style="italic" font-weight="bold" fill="#000000" x="112.32814" y="359.14696" id="svg_6" stroke-width="0" font-size="24" font-family="Noto Sans JP" text-anchor="start" xml:space="preserve" stroke="#000" transform="matrix(2.60693 0 0 2.49236 -238.02 -397.61)">おめでとうございます！</text>
  <ellipse fill="#FFF093" cx="384.1" cy="252.4" id="svg_14" rx="146.5" ry="142" stroke="#000"/>
  <ellipse fill="#ffffff" cx="384.1" cy="252.40002" id="svg_15" rx="133.49999" ry="129.99998" stroke="#000"/>
  <path fill="#ffffff" d="m439.71707,414.17729l-10.81719,7.55683l4.13498,-12.22394l-10.81475,-7.55683l13.36806,0.00234l3.55297,-10.51095l0.57958,-1.70714l4.12767,12.21574l13.37172,0l-10.81962,7.55683l4.1362,12.22745l-10.81962,-7.56034l0,0l0,0.00001z" id="svg_20" stroke="#000"/>
  <path fill="#ffffff" d="m221.71707,325.17729l-10.81718,7.55683l4.13498,-12.22394l-10.81475,-7.55682l13.36806,0.00234l3.55297,-10.51095l0.57958,-1.70713l4.12767,12.21574l13.37172,0l-10.81962,7.55682l4.1362,12.22745l-10.81963,-7.56034l0,0z" id="svg_21" stroke="#000"/>
  <path fill="#ffffff" d="m246.71707,149.17729l-10.81718,7.55683l4.13498,-12.22394l-10.81475,-7.55682l13.36806,0.00234l3.55297,-10.51095l0.57958,-1.70713l4.12767,12.21574l13.37172,0l-10.81962,7.55682l4.1362,12.22745l-10.81963,-7.56034l0,0z" id="svg_22" stroke="#000"/>
  <path fill="#ffffff" d="m210.71707,281.17729l-10.81718,7.55683l4.13498,-12.22394l-10.81475,-7.55682l13.36806,0.00234l3.55297,-10.51095l0.57958,-1.70713l4.12767,12.21574l13.37172,0l-10.81962,7.55682l4.1362,12.22745l-10.81963,-7.56034l0,0z" id="svg_23" stroke="#000"/>
  <path fill="#ffffff" d="m276.71707,391.17729l-10.81718,7.55683l4.13498,-12.22394l-10.81475,-7.55682l13.36806,0.00234l3.55297,-10.51095l0.57958,-1.70713l4.12767,12.21574l13.37172,0l-10.81962,7.55682l4.1362,12.22745l-10.81963,-7.56034l0,0z" id="svg_24" stroke="#000"/>
  <path fill="#ffffff" d="m486.71707,390.17729l-10.81718,7.55683l4.13498,-12.22394l-10.81475,-7.55682l13.36806,0.00234l3.55297,-10.51095l0.57958,-1.70713l4.12767,12.21574l13.37172,0l-10.81962,7.55682l4.1362,12.22745l-10.81963,-7.56034l0,0z" id="svg_25" stroke="#000"/>
  <path fill="#ffffff" d="m479.71707,121.17729l-10.81718,7.55683l4.13498,-12.22394l-10.81475,-7.55682l13.36806,0.00234l3.55297,-10.51095l0.57958,-1.70713l4.12767,12.21574l13.37172,0l-10.81962,7.55682l4.1362,12.22745l-10.81963,-7.56034l0,0z" id="svg_26" stroke="#000"/>
  <path fill="#ffffff" d="m544.71707,196.17729l-10.81718,7.55683l4.13498,-12.22394l-10.81475,-7.55682l13.36806,0.00234l3.55297,-10.51095l0.57958,-1.70713l4.12767,12.21574l13.37172,0l-10.81962,7.55682l4.1362,12.22745l-10.81963,-7.56034l0,0z" id="svg_27" stroke="#000"/>
  <path fill="#ffffff" d="m325.71707,101.17729l-10.81718,7.55683l4.13498,-12.22394l-10.81475,-7.55682l13.36806,0.00234l3.55297,-10.51095l0.57958,-1.70713l4.12767,12.21574l13.37172,0l-10.81962,7.55682l4.1362,12.22745l-10.81963,-7.56034l0,0z" id="svg_28" stroke="#000"/>
  <path fill="#ffffff" d="m326.71707,409.17729l-10.81718,7.55683l4.13498,-12.22394l-10.81475,-7.55682l13.36806,0.00234l3.55297,-10.51095l0.57958,-1.70713l4.12767,12.21574l13.37172,0l-10.81962,7.55682l4.1362,12.22745l-10.81963,-7.56034l0,0z" id="svg_29" stroke="#000"/>
  <path fill="#ffffff" d="m556.71707,287.17729l-10.81718,7.55683l4.13498,-12.22394l-10.81475,-7.55682l13.36806,0.00234l3.55297,-10.51095l0.57958,-1.70713l4.12767,12.21574l13.37172,0l-10.81962,7.55682l4.1362,12.22745l-10.81963,-7.56034l0,0z" id="svg_30" stroke="#000"/>
  <path fill="#ffffff" d="m282.71707,118.17729l-10.81718,7.55683l4.13498,-12.22394l-10.81475,-7.55682l13.36806,0.00234l3.55297,-10.51095l0.57958,-1.70713l4.12767,12.21574l13.37172,0l-10.81962,7.55682l4.1362,12.22745l-10.81963,-7.56034l0,0z" id="svg_32" stroke="#000"/>
  <path fill="#ffffff" d="m381.71707,423.17729l-10.81718,7.55683l4.13498,-12.22394l-10.81475,-7.55682l13.36806,0.00234l3.55297,-10.51095l0.57958,-1.70713l4.12767,12.21574l13.37172,0l-10.81962,7.55682l4.1362,12.22745l-10.81963,-7.56034l0,0z" id="svg_33" stroke="#000"/>
  <path fill="#ffffff" d="m219.71707,190.17729l-10.81718,7.55683l4.13498,-12.22394l-10.81475,-7.55682l13.36806,0.00234l3.55297,-10.51095l0.57958,-1.70713l4.12767,12.21574l13.37172,0l-10.81962,7.55682l4.1362,12.22745l-10.81963,-7.56034l0,0z" id="svg_34" stroke="#000"/>
  <path fill="#ffffff" d="m241.71707,360.17729l-10.81718,7.55683l4.13498,-12.22394l-10.81475,-7.55682l13.36806,0.00234l3.55297,-10.51095l0.57958,-1.70713l4.12767,12.21574l13.37172,0l-10.81962,7.55682l4.1362,12.22745l-10.81963,-7.56034l0,0z" id="svg_35" stroke="#000"/>
  <path fill="#ffffff" d="m520.71707,152.17729l-10.81718,7.55683l4.13498,-12.22394l-10.81475,-7.55682l13.36806,0.00234l3.55297,-10.51095l0.57958,-1.70713l4.12767,12.21574l13.37172,0l-10.81962,7.55682l4.1362,12.22745l-10.81963,-7.56034l0,0z" id="svg_36" stroke="#000"/>
  <path fill="#ffffff" d="m542.71707,326.17729l-10.81718,7.55683l4.13498,-12.22394l-10.81475,-7.55682l13.36806,0.00234l3.55297,-10.51095l0.57958,-1.70713l4.12767,12.21574l13.37172,0l-10.81962,7.55682l4.1362,12.22745l-10.81963,-7.56034l0,0z" id="svg_37" stroke="#000"/>
  <path fill="#ffffff" d="m519.71707,363.17729l-10.81718,7.55683l4.13498,-12.22394l-10.81475,-7.55682l13.36806,0.00234l3.55297,-10.51095l0.57958,-1.70713l4.12767,12.21574l13.37172,0l-10.81962,7.55682l4.1362,12.22745l-10.81963,-7.56034l0,0z" id="svg_38" stroke="#000"/>
  <ellipse fill="#FFF5FF" cx="720.1" cy="333.4" id="svg_46" rx="42" ry="42" opacity="0.2" stroke="#000"/>
  <ellipse fill="#FFF5FF" cx="623.09999" cy="244.4" id="svg_48" rx="10" ry="10" opacity="0.2" stroke="#000"/>
  <ellipse fill="#FFF5FF" cx="644.1" cy="155.4" id="svg_49" rx="30" ry="30" opacity="0.2" stroke="#000"/>
  <ellipse fill="#FFF5FF" cx="33.1" cy="92.4" id="svg_50" rx="18" ry="17" opacity="0.2" stroke="#000"/>
  <ellipse fill="#FFF5FF" cx="66.1" cy="328.4" id="svg_51" rx="10" ry="10" opacity="0.2" stroke="#000"/>
  <ellipse fill="#FFF5FF" cx="69.1" cy="221.4" id="svg_52" rx="42" ry="42" opacity="0.2" stroke="#000"/>
  <ellipse fill="#FFF5FF" cx="209.1" cy="69.4" id="svg_53" rx="42" ry="42" opacity="0.2" stroke="#000"/>
  <ellipse fill="#FFF5FF" cx="160.1" cy="209.4" id="svg_54" rx="20" ry="20" opacity="0.2" stroke="#000"/>
  <ellipse fill="#FFF5FF" cx="605.1" cy="385.4" id="svg_55" rx="18" ry="18" opacity="0.2" stroke="#000"/>
  <path fill="#ffffff" d="m557.71707,247.17729l-10.81718,7.55683l4.13498,-12.22394l-10.81475,-7.55682l13.36806,0.00234l3.55297,-10.51095l0.57958,-1.70713l4.12767,12.21574l13.37172,0l-10.81962,7.55682l4.1362,12.22745l-10.81963,-7.56034l0,0z" id="svg_56" stroke="#000"/>
  <path fill="#ffffff" d="m209.71707,235.17729l-10.81718,7.55683l4.13498,-12.22394l-10.81475,-7.55682l13.36806,0.00234l3.55297,-10.51095l0.57958,-1.70713l4.12767,12.21574l13.37172,0l-10.81962,7.55682l4.1362,12.22745l-10.81963,-7.56034l0,0z" id="svg_57" stroke="#000"/>
  <text fill="#A8FFE9" x="389.6" y="262.9289" id="svg_58" font-size="24" font-family="Noto Sans JP" text-anchor="start" xml:space="preserve" stroke="#000" transform="matrix(2.59226 0 0 2.81396 -686.558 -457.427)">景品</text>
  <path fill="#ffffff" d="m433.71707,98.17729l-10.81718,7.55683l4.13498,-12.22394l-10.81475,-7.55682l13.36806,0.00234l3.55297,-10.51095l0.57958,-1.70713l4.12767,12.21574l13.37172,0l-10.81962,7.55682l4.1362,12.22745l-10.81963,-7.56034l0,0z" id="svg_59" stroke="#000"/>
  <path fill="#ffffff" d="m381.71707,94.17729l-10.81718,7.55683l4.13498,-12.22394l-10.81475,-7.55682l13.36806,0.00234l3.55297,-10.51095l0.57958,-1.70713l4.12767,12.21574l13.37172,0l-10.81962,7.55682l4.1362,12.22745l-10.81963,-7.56034l0,0z" id="svg_60" stroke="#000"/>
</svg>