<svg width="800" height="600" xmlns="http://www.w3.org/2000/svg">
 <g id="Layer_1">
  <title>Layer 1</title>
  <rect stroke="#000" transform="translate(801.6 553.8) scale(1.00375 1.00825) translate(-801.6 -553.8)" style="vector-effect: non-scaling-stroke;" id="svg_24" height="484.99999" width="800.00001" y="68.8" x="1.6" stroke-width="0" fill="#B6C7EA"/>
  <g>
   <g id="svg_2">
    <title>Layer 1</title>
    <text font-style="italic" font-weight="bold" transform="matrix(6.63244 0 0 6.0648 -661.965 -1786.14)" stroke="#000" xml:space="preserve" text-anchor="start" font-family="'Alegreya'" font-size="24" id="svg_23" y="350.44481" x="130.48488" stroke-width="0" fill="#A8FFE9">残念！</text>
    <path id="svg_22" d="m125.15068,324.64536c-0.83112,-0.05284 -1.42684,-0.22076 -1.29146,-0.36402c0.08537,-0.09034 1.88644,-0.63874 2.04373,-0.62229c0.05134,0.00537 0.50818,0.13322 1.0152,0.28412c0.81219,0.24172 0.92186,0.2868 0.92186,0.37891c0,0.18671 -0.88307,0.33964 -1.94338,0.33656c-0.30941,-0.0009 -0.64508,-0.00688 -0.74593,-0.01329l0,0l-0.00002,0.00001zm0.83269,-0.09391c0.02751,-0.02417 -0.03675,-0.03596 -0.19603,-0.03596c-0.36302,0 -0.86659,-0.0778 -0.97909,-0.15126c-0.12001,-0.07837 -0.43822,-0.08769 -0.48522,-0.01421c-0.09055,0.14156 1.50779,0.33548 1.66034,0.20144l0,0l0,-0.00001z" stroke-width="0" stroke="#000" fill="#A8FFE9"/>
    <path opacity="0.4" filter="url(#svg_1)" id="svg_21" d="m560.98785,476.23297c-12.67464,-5.0202 -21.75941,-20.97177 -19.69481,-34.58135c1.30188,-8.58188 28.76818,-60.67983 31.16686,-59.11718c0.7829,0.51002 7.7497,12.65624 15.48178,26.9916c12.38598,22.96373 14.05832,27.24576 14.05832,35.99632c0,17.73704 -13.46688,32.26568 -29.63665,31.9733c-4.71857,-0.08533 -9.83755,-0.65354 -11.3755,-1.26269l0,0zm12.69856,-8.92108c0.41953,-2.29632 -0.56048,-3.41622 -2.98953,-3.41622c-5.53605,0 -13.21545,-7.39079 -14.93114,-14.36998c-1.83018,-7.44491 -6.68281,-8.33033 -7.39956,-1.35014c-1.38094,13.44833 22.99376,31.87005 25.32023,19.13634l0,0z" stroke-width="0" stroke="#000" fill="#A8FFE9"/>
    <path opacity="0.4" filter="url(#svg_1)" id="svg_20" d="m238.98785,489.23297c-12.67464,-5.0202 -21.75941,-20.97177 -19.69481,-34.58135c1.30188,-8.58188 28.76818,-60.67983 31.16686,-59.11718c0.7829,0.51002 7.7497,12.65624 15.48178,26.9916c12.38598,22.96373 14.05832,27.24576 14.05832,35.99632c0,17.73704 -13.46688,32.26568 -29.63665,31.9733c-4.71857,-0.08533 -9.83755,-0.65354 -11.3755,-1.26269l0,0zm12.69856,-8.92108c0.41953,-2.29632 -0.56048,-3.41622 -2.98953,-3.41622c-5.53605,0 -13.21545,-7.39079 -14.93114,-14.36998c-1.83018,-7.44491 -6.68281,-8.33033 -7.39956,-1.35014c-1.38094,13.44833 22.99376,31.87005 25.32023,19.13634l0,0z" stroke-width="0" stroke="#000" fill="#A8FFE9"/>
    <path opacity="0.4" filter="url(#svg_1)" id="svg_19" d="m706.98785,176.23297c-12.67464,-5.0202 -21.75941,-20.97177 -19.69481,-34.58135c1.30188,-8.58188 28.76818,-60.67983 31.16686,-59.11718c0.7829,0.51002 7.7497,12.65624 15.48178,26.9916c12.38598,22.96373 14.05832,27.24576 14.05832,35.99632c0,17.73704 -13.46688,32.26568 -29.63665,31.9733c-4.71857,-0.08533 -9.83755,-0.65354 -11.3755,-1.26269l0,0zm12.69856,-8.92108c0.41953,-2.29632 -0.56048,-3.41622 -2.98953,-3.41622c-5.53605,0 -13.21545,-7.39079 -14.93114,-14.36998c-1.83018,-7.44491 -6.68281,-8.33033 -7.39956,-1.35014c-1.38094,13.44833 22.99376,31.87005 25.32023,19.13634l0,0z" stroke-width="0" stroke="#000" fill="#A8FFE9"/>
    <path opacity="0.4" filter="url(#svg_1)" id="svg_18" d="m95.98785,206.23297c-12.67464,-5.0202 -21.75941,-20.97177 -19.69481,-34.58135c1.30188,-8.58188 28.76818,-60.67983 31.16686,-59.11718c0.7829,0.51002 7.7497,12.65624 15.48178,26.9916c12.38598,22.96373 14.05832,27.24576 14.05832,35.99632c0,17.73704 -13.46688,32.26568 -29.63665,31.9733c-4.71857,-0.08533 -9.83755,-0.65354 -11.3755,-1.26269l0,0zm12.69856,-8.92108c0.41953,-2.29632 -0.56048,-3.41622 -2.98953,-3.41622c-5.53605,0 -13.21545,-7.39079 -14.93114,-14.36998c-1.83018,-7.44491 -6.68281,-8.33033 -7.39956,-1.35014c-1.38094,13.44833 22.99376,31.87005 25.32023,19.13634l0,0z" stroke-width="0" stroke="#000" fill="#A8FFE9"/>
    <path opacity="0.4" filter="url(#svg_1)" id="svg_17" d="m144.98785,387.23297c-12.67464,-5.0202 -21.75941,-20.97177 -19.69481,-34.58135c1.30188,-8.58188 28.76818,-60.67983 31.16686,-59.11718c0.7829,0.51002 7.7497,12.65624 15.48178,26.9916c12.38598,22.96373 14.05832,27.24576 14.05832,35.99632c0,17.73704 -13.46688,32.26568 -29.63665,31.9733c-4.71857,-0.08533 -9.83755,-0.65354 -11.3755,-1.26269l0,0zm12.69856,-8.92108c0.41953,-2.29632 -0.56048,-3.41622 -2.98953,-3.41622c-5.53605,0 -13.21545,-7.39079 -14.93114,-14.36998c-1.83018,-7.44491 -6.68281,-8.33033 -7.39956,-1.35014c-1.38094,13.44833 22.99376,31.87005 25.32023,19.13634l0,0z" stroke-width="0" stroke="#000" fill="#A8FFE9"/>
    <path opacity="0.4" filter="url(#svg_1)" id="svg_16" d="m755.98785,381.23297c-12.67464,-5.0202 -21.75941,-20.97177 -19.69481,-34.58135c1.30188,-8.58188 28.76818,-60.67983 31.16686,-59.11718c0.7829,0.51002 7.7497,12.65624 15.48178,26.9916c12.38598,22.96373 14.05832,27.24576 14.05832,35.99632c0,17.73704 -13.46688,32.26568 -29.63665,31.9733c-4.71857,-0.08533 -9.83755,-0.65354 -11.3755,-1.26269l0,0zm12.69856,-8.92108c0.41953,-2.29632 -0.56048,-3.41622 -2.98953,-3.41622c-5.53605,0 -13.21545,-7.39079 -14.93114,-14.36998c-1.83018,-7.44491 -6.68281,-8.33033 -7.39956,-1.35014c-1.38094,13.44833 22.99376,31.87005 25.32023,19.13634l0,0z" stroke-width="0" stroke="#000" fill="#A8FFE9"/>
    <path opacity="0.4" filter="url(#svg_1)" id="svg_15" d="m738.98785,552.23297c-12.67464,-5.0202 -21.75941,-20.97177 -19.69481,-34.58135c1.30188,-8.58188 28.76818,-60.67983 31.16686,-59.11718c0.7829,0.51002 7.7497,12.65624 15.48178,26.9916c12.38598,22.96373 14.05832,27.24576 14.05832,35.99632c0,17.73704 -13.46688,32.26568 -29.63665,31.9733c-4.71857,-0.08533 -9.83755,-0.65354 -11.3755,-1.26269l0,0zm12.69856,-8.92108c0.41953,-2.29632 -0.56048,-3.41622 -2.98953,-3.41622c-5.53605,0 -13.21545,-7.39079 -14.93114,-14.36998c-1.83018,-7.44491 -6.68281,-8.33033 -7.39956,-1.35014c-1.38094,13.44833 22.99376,31.87005 25.32023,19.13634l0,0z" stroke-width="0" stroke="#000" fill="#A8FFE9"/>
    <path opacity="0.4" filter="url(#svg_1)" id="svg_14" d="m391.98785,523.23297c-12.67464,-5.0202 -21.75941,-20.97177 -19.69481,-34.58135c1.30188,-8.58188 28.76818,-60.67983 31.16686,-59.11718c0.7829,0.51002 7.7497,12.65624 15.48178,26.9916c12.38598,22.96373 14.05832,27.24576 14.05832,35.99632c0,17.73704 -13.46688,32.26568 -29.63665,31.9733c-4.71857,-0.08533 -9.83755,-0.65354 -11.3755,-1.26269l0,0zm12.69856,-8.92108c0.41953,-2.29632 -0.56048,-3.41622 -2.98953,-3.41622c-5.53605,0 -13.21545,-7.39079 -14.93114,-14.36998c-1.83018,-7.44491 -6.68281,-8.33033 -7.39956,-1.35014c-1.38094,13.44833 22.99376,31.87005 25.32023,19.13634l0,0z" stroke-width="0" stroke="#000" fill="#A8FFE9"/>
    <path opacity="0.4" filter="url(#svg_1)" id="svg_13" d="m62.98785,533.23297c-12.67464,-5.0202 -21.75941,-20.97177 -19.69481,-34.58135c1.30188,-8.58188 28.76818,-60.67983 31.16686,-59.11718c0.7829,0.51002 7.7497,12.65624 15.48178,26.9916c12.38598,22.96373 14.05832,27.24576 14.05832,35.99632c0,17.73704 -13.46688,32.26568 -29.63665,31.9733c-4.71857,-0.08533 -9.83755,-0.65354 -11.3755,-1.26269l0,0zm12.69856,-8.92108c0.41953,-2.29632 -0.56048,-3.41622 -2.98953,-3.41622c-5.53605,0 -13.21545,-7.39079 -14.93114,-14.36998c-1.83018,-7.44491 -6.68281,-8.33033 -7.39956,-1.35014c-1.38094,13.44833 22.99376,31.87005 25.32023,19.13634l0,0z" stroke-width="0" stroke="#000" fill="#A8FFE9"/>
    <path opacity="0.4" filter="url(#svg_1)" id="svg_12" d="m238.98785,137.23297c-12.67464,-5.0202 -21.75941,-20.97177 -19.69481,-34.58135c1.30188,-8.58188 28.76818,-60.67983 31.16686,-59.11718c0.7829,0.51002 7.7497,12.65624 15.48178,26.9916c12.38598,22.96373 14.05832,27.24576 14.05832,35.99632c0,17.73704 -13.46688,32.26568 -29.63665,31.9733c-4.71857,-0.08533 -9.83755,-0.65354 -11.3755,-1.26269l0,0zm12.69856,-8.92108c0.41953,-2.29632 -0.56048,-3.41622 -2.98953,-3.41622c-5.53605,0 -13.21545,-7.39079 -14.93114,-14.36998c-1.83018,-7.44491 -6.68281,-8.33033 -7.39956,-1.35014c-1.38094,13.44833 22.99376,31.87005 25.32023,19.13634l0,0z" stroke-width="0" stroke="#000" fill="#A8FFE9"/>
    <path opacity="0.4" filter="url(#svg_1)" id="svg_11" d="m538.98785,224.23297c-12.67464,-5.0202 -21.75941,-20.97177 -19.69481,-34.58135c1.30188,-8.58188 28.76818,-60.67983 31.16686,-59.11718c0.7829,0.51002 7.7497,12.65624 15.48178,26.9916c12.38598,22.96373 14.05832,27.24576 14.05832,35.99632c0,17.73704 -13.46688,32.26568 -29.63665,31.9733c-4.71857,-0.08533 -9.83755,-0.65354 -11.3755,-1.26269l0,0zm12.69856,-8.92108c0.41953,-2.29632 -0.56048,-3.41622 -2.98953,-3.41622c-5.53605,0 -13.21545,-7.39079 -14.93114,-14.36998c-1.83018,-7.44491 -6.68281,-8.33033 -7.39956,-1.35014c-1.38094,13.44833 22.99376,31.87005 25.32023,19.13634l0,0z" stroke-width="0" stroke="#000" fill="#A8FFE9"/>
    <path opacity="0.4" filter="url(#svg_1)" id="svg_10" d="m22.98785,337.23297c-12.67464,-5.0202 -21.75941,-20.97177 -19.69481,-34.58135c1.30188,-8.58188 28.76818,-60.67983 31.16686,-59.11718c0.7829,0.51002 7.7497,12.65624 15.48178,26.9916c12.38598,22.96373 14.05832,27.24576 14.05832,35.99632c0,17.73704 -13.46688,32.26568 -29.63665,31.9733c-4.71857,-0.08533 -9.83755,-0.65354 -11.3755,-1.26269l0,0zm12.69856,-8.92108c0.41953,-2.29632 -0.56048,-3.41622 -2.98953,-3.41622c-5.53605,0 -13.21545,-7.39079 -14.93114,-14.36998c-1.83018,-7.44491 -6.68281,-8.33033 -7.39956,-1.35014c-1.38094,13.44833 22.99376,31.87005 25.32023,19.13634l0,0z" stroke-width="0" stroke="#000" fill="#A8FFE9"/>
    <path opacity="0.4" filter="url(#svg_1)" id="svg_9" d="m653.98785,344.23297c-12.67464,-5.0202 -21.75941,-20.97177 -19.69481,-34.58135c1.30188,-8.58188 28.76818,-60.67983 31.16686,-59.11718c0.7829,0.51002 7.7497,12.65624 15.48178,26.9916c12.38598,22.96373 14.05832,27.24576 14.05832,35.99632c0,17.73704 -13.46688,32.26568 -29.63665,31.9733c-4.71857,-0.08533 -9.83755,-0.65354 -11.3755,-1.26269l0,0zm12.69856,-8.92108c0.41953,-2.29632 -0.56048,-3.41622 -2.98953,-3.41622c-5.53605,0 -13.21545,-7.39079 -14.93114,-14.36998c-1.83018,-7.44491 -6.68281,-8.33033 -7.39956,-1.35014c-1.38094,13.44833 22.99376,31.87005 25.32023,19.13634l0,0z" stroke-width="0" stroke="#000" fill="#A8FFE9"/>
    <path opacity="0.4" filter="url(#svg_1)" id="svg_8" d="m339.98785,242.23297c-12.67464,-5.0202 -21.75941,-20.97177 -19.69481,-34.58135c1.30188,-8.58188 28.76818,-60.67983 31.16686,-59.11718c0.7829,0.51002 7.7497,12.65624 15.48178,26.9916c12.38598,22.96373 14.05832,27.24576 14.05832,35.99632c0,17.73704 -13.46688,32.26568 -29.63665,31.9733c-4.71857,-0.08533 -9.83755,-0.65354 -11.3755,-1.26269l0,0zm12.69856,-8.92108c0.41953,-2.29632 -0.56048,-3.41622 -2.98953,-3.41622c-5.53605,0 -13.21545,-7.39079 -14.93114,-14.36998c-1.83018,-7.44491 -6.68281,-8.33033 -7.39956,-1.35014c-1.38094,13.44833 22.99376,31.87005 25.32023,19.13634l0,0z" stroke-width="0" stroke="#000" fill="#A8FFE9"/>
    <path opacity="0.4" filter="url(#svg_1)" id="svg_7" d="m426.98785,398.23297c-12.67464,-5.0202 -21.75941,-20.97177 -19.69481,-34.58135c1.30188,-8.58188 28.76818,-60.67983 31.16686,-59.11718c0.7829,0.51002 7.7497,12.65624 15.48178,26.9916c12.38598,22.96373 14.05832,27.24576 14.05832,35.99632c0,17.73704 -13.46688,32.26568 -29.63665,31.9733c-4.71857,-0.08533 -9.83755,-0.65354 -11.3755,-1.26269l0,0zm12.69856,-8.92108c0.41953,-2.29632 -0.56048,-3.41622 -2.98953,-3.41622c-5.53605,0 -13.21545,-7.39079 -14.93114,-14.36998c-1.83018,-7.44491 -6.68281,-8.33033 -7.39956,-1.35014c-1.38094,13.44833 22.99376,31.87005 25.32023,19.13634l0,0z" stroke-width="0" stroke="#000" fill="#A8FFE9"/>
    <path opacity="0.4" filter="url(#svg_1)" id="svg_6" d="m28.98785,123.23297c-12.67464,-5.0202 -21.75941,-20.97177 -19.69481,-34.58135c1.30188,-8.58188 28.76818,-60.67983 31.16686,-59.11718c0.7829,0.51002 7.7497,12.65624 15.48178,26.9916c12.38598,22.96373 14.05832,27.24576 14.05832,35.99632c0,17.73704 -13.46688,32.26568 -29.63665,31.9733c-4.71857,-0.08533 -9.83755,-0.65354 -11.3755,-1.26269l0,0zm12.69856,-8.92108c0.41953,-2.29632 -0.56048,-3.41622 -2.98953,-3.41622c-5.53605,0 -13.21545,-7.39079 -14.93114,-14.36998c-1.83018,-7.44491 -6.68281,-8.33033 -7.39956,-1.35014c-1.38094,13.44833 22.99376,31.87005 25.32023,19.13634l0,0z" stroke-width="0" stroke="#000" fill="#A8FFE9"/>
    <path opacity="0.4" filter="url(#svg_1)" id="svg_5" d="m430.98785,163.23297c-12.67464,-5.0202 -21.75941,-20.97177 -19.69481,-34.58135c1.30188,-8.58188 28.76818,-60.67983 31.16686,-59.11718c0.7829,0.51002 7.7497,12.65624 15.48178,26.9916c12.38598,22.96373 14.05832,27.24576 14.05832,35.99632c0,17.73704 -13.46688,32.26568 -29.63665,31.9733c-4.71857,-0.08533 -9.83755,-0.65354 -11.3755,-1.26269l0,0zm12.69856,-8.92108c0.41953,-2.29632 -0.56048,-3.41622 -2.98953,-3.41622c-5.53605,0 -13.21545,-7.39079 -14.93114,-14.36998c-1.83018,-7.44491 -6.68281,-8.33033 -7.39956,-1.35014c-1.38094,13.44833 22.99376,31.87005 25.32023,19.13634l0,0z" stroke-width="0" stroke="#000" fill="#A8FFE9"/>
    <path opacity="0.4" filter="url(#svg_1)" id="svg_4" d="m591.98785,587.23297c-12.67464,-5.0202 -21.75941,-20.97177 -19.69481,-34.58135c1.30188,-8.58188 28.76818,-60.67983 31.16686,-59.11718c0.7829,0.51002 7.7497,12.65624 15.48178,26.9916c12.38598,22.96373 14.05832,27.24576 14.05832,35.99632c0,17.73704 -13.46688,32.26568 -29.63665,31.9733c-4.71857,-0.08533 -9.83755,-0.65354 -11.3755,-1.26269l0,0zm12.69856,-8.92108c0.41953,-2.29632 -0.56048,-3.41622 -2.98953,-3.41622c-5.53605,0 -13.21545,-7.39079 -14.93114,-14.36998c-1.83018,-7.44491 -6.68281,-8.33033 -7.39956,-1.35014c-1.38094,13.44833 22.99376,31.87005 25.32023,19.13634l0,0z" stroke-width="0" stroke="#000" fill="#A8FFE9"/>
    <path opacity="0.4" filter="url(#svg_1)" id="svg_3" d="m606.98785,105.23297c-12.67464,-5.0202 -21.75941,-20.97177 -19.69481,-34.58135c1.30188,-8.58188 28.76818,-60.67983 31.16686,-59.11718c0.7829,0.51002 7.7497,12.65624 15.48178,26.9916c12.38598,22.96373 14.05832,27.24576 14.05832,35.99632c0,17.73704 -13.46688,32.26568 -29.63665,31.9733c-4.71857,-0.08533 -9.83755,-0.65354 -11.3755,-1.26269l0,0zm12.69856,-8.92108c0.41953,-2.29632 -0.56048,-3.41622 -2.98953,-3.41622c-5.53605,0 -13.21545,-7.39079 -14.93114,-14.36998c-1.83018,-7.44491 -6.68281,-8.33033 -7.39956,-1.35014c-1.38094,13.44833 22.99376,31.87005 25.32023,19.13634l0,0z" stroke-width="0" stroke="#000" fill="#A8FFE9"/>
   </g>
   <defs transform="translate(14.5435 0) translate(0 -15.936)">
    <filter id="svg_1">
     <feGaussianBlur stdDeviation="2.9" in="SourceGraphic"/>
    </filter>
   </defs>
  </g>
 </g>

</svg>